<?xml version="1.0" encoding="UTF-8" standalone="no"?>
<!DOCTYPE svg PUBLIC "-//W3C//DTD SVG 1.1//EN" "http://www.w3.org/Graphics/SVG/1.1/DTD/svg11.dtd">
<svg width="100%" height="100%" viewBox="0 0 2048 2048" version="1.1" xmlns="http://www.w3.org/2000/svg" xmlns:xlink="http://www.w3.org/1999/xlink" xml:space="preserve" xmlns:serif="http://www.serif.com/" style="fill-rule:evenodd;clip-rule:evenodd;stroke-linejoin:round;stroke-miterlimit:2;">
    <g id="Symbol_2_" transform="matrix(36.2087,0,0,35.6621,-2773.51,-805.908)">
        <g id="path9" transform="matrix(1,0,0,1,-0.102163,0.191235)">
            <path d="M133.1,32.4L133,31.3L132,30.6C127.8,27.7 119.8,24.3 105.5,24.3C100.1,24.3 95.2,24.8 90.9,25.8C89.4,24.5 87.4,23.7 85.3,23.7C80.6,23.7 76.7,27.5 76.7,32.3C76.7,33.8 77.1,35.2 77.8,36.5C78,43.9 80.3,51.6 84.8,59.4C92.2,71.9 100.1,75.6 103.9,77.3C104.2,77.4 104.4,77.5 104.6,77.6L105.6,78.1L106.6,77.6C106.8,77.5 107.1,77.4 107.3,77.3C111.2,75.6 119,71.9 126.2,59.4C134.1,45.7 133.4,35.7 133.1,32.4Z" style="fill:white;fill-rule:nonzero;"/>
        </g>
        <g id="path24" transform="matrix(1,0,0,1,-0.16076,0.295187)">
            <path d="M103.3,43.2C103.3,43.2 104.6,43.3 105.7,44.7L105.1,44.8L104.8,44.7C104.8,44.7 103.9,43.6 103.3,43.2ZM101.3,49.4L100.7,47.9L100.5,47.9L99.5,49.1C100.2,49.7 101.3,49.4 101.3,49.4ZM110.5,40.6L110,40.8L110.6,41.9L112.6,42.6C111.8,40.9 110.5,40.6 110.5,40.6ZM104.8,42.7C105.4,43.4 106,44.4 106,44.4C107,43.4 109.1,43 111.8,43.1C108,42.3 104.8,42.7 104.8,42.7ZM101.1,41.2C101.1,41.2 102.2,41.2 103.7,41.5C102.7,40.8 101.1,40.4 101.1,40.4L101.1,41.2ZM110.3,46.7L108.6,48.2L109.9,48.6L111.2,47.2L110.5,46.9L110.3,46.7ZM99,38.8C99,38.8 99.7,39.2 99.8,39.2C99.9,39.2 101.3,39.7 101.9,39.9C102.4,40.1 102.7,39.9 102.8,39.9C102.9,39.9 104.6,38.9 104.6,38.9C103.1,38.3 101.7,37.9 101.7,37.9C101.6,37.9 99,38.8 99,38.8ZM109.2,39.7C109.1,39.5 108.9,39.5 107.7,39.3C106.6,39.2 105.6,39.1 105.4,39.1C105.2,39.1 105.1,39.2 105.1,39.2C105.1,39.2 104.5,39.6 104,39.9C103.5,40.2 103.4,40.3 103.3,40.5C103.2,40.6 103.5,41 103.5,41L104.3,42C104.4,42 104.7,42.2 104.7,42.2C104.7,42.2 106.3,42.1 107.3,42L109.9,42C110,42 109.9,41.6 109.7,41.1C109.5,40.7 109.2,39.7 109.2,39.7ZM99.7,40.8C99.7,40.8 99.8,40.8 100,40.9C100.2,40.9 100.3,40.7 100.3,40.5C100.3,40.2 100,40.1 100,40.1L99.8,40.1L99.5,40.2L99.4,40.9L99.5,40.9L99.7,40.8C99.6,40.6 99.6,40.5 99.6,40.3C99.6,40.2 99.8,40 99.9,40C99.9,40 100.1,40 100,40.4C100,40.8 99.7,40.8 99.7,40.8ZM116.6,48.7L115.8,49.8L115.8,49.9L116.9,49.9C117.1,49.2 116.6,48.7 116.6,48.7ZM96.6,43.5L96.4,43.5L95.9,43.4C95.4,43.3 95.6,42.4 95.6,42.4L95,42.6C94.8,42.2 93.9,41.1 93.9,41.1L93.7,41.9C93.8,42 94.3,42.8 94.4,43L94.1,43.3C94.1,43.3 94,43.5 94,43.6C94,43.7 93.9,43.8 93.9,43.8L93.5,44L93.4,44L92,42.9L92,43.7L92.1,43.7C92.2,43.9 92.4,44.3 92.9,44.5C93.3,44.7 93.8,44.7 94,44.6C94.2,44.7 94.3,44.7 94.4,44.8C94.8,45 94.9,44.9 94.9,44.9L95.5,44.7L95.6,44.7L95.7,44.6L95.9,44.2C95.9,44.2 96.9,44.3 97.3,44.3C97.7,43.7 99,42.8 99.9,42.7C100.8,42.7 102.3,42.9 103.5,44.1C104.6,45.3 104.3,46.9 104.3,46.9L106.5,47.6L105.5,46.9C104.7,44.9 102.8,43.1 102.8,43.1C102.8,43.1 102.3,43 102,43C101.7,42.9 101.5,42.7 101.5,42.7C101.5,42.7 101.4,42.6 101.2,42.3L101,41.9C101,41.9 100.8,41.7 100.5,41.5C100.2,41.3 99.1,41.2 98.5,41.1C97.9,41 97.9,41.1 97.9,41.1C99.6,41.5 100.1,41.6 100.2,41.7C100.2,41.7 100.3,41.9 100.4,42C99,41.7 97.7,41.9 97.4,42C97.6,42.3 97.6,42.7 97.4,43C97.2,43.2 96.6,43.5 96.6,43.5ZM115.6,50.7L115.9,52C115.9,52 116.2,51.7 116.5,51.3C116.8,50.9 116.9,50.5 116.9,50.5L115.7,50.6L115.6,50.7ZM91.5,41.6L91.4,42.7L92,42.7L92.1,42L92.1,42.4L92.2,42.4L92.2,41.8L92.1,41.8L92.1,41.4L93,41.9L93.1,42.1L93.3,42.3L93.5,42.3L93.6,42.2L93.6,42.1C93,42.1 93,41.8 93,41.8C93,41.8 93.1,41.1 93.2,40.9C93.3,40.7 93.7,40.8 93.7,40.8L93.6,40.7L93.4,40.7C93.2,40.6 92.6,40.2 92.4,40.1L92.4,40L92.5,39.9L92.5,39.5L92.6,39.5C92.6,39.4 92.7,39.4 92.7,39.3C92.9,39.3 94.4,39 94.4,39L93,38.7L93,38.6C92.6,38.5 92.3,38.4 92.1,38.3C91.6,38.9 91.4,39.7 91.4,39.7C91.4,39.7 91.3,41.1 91.3,41.3C91.2,41.5 91.5,41.6 91.5,41.6ZM115,49.5L115.2,49.8L115.3,49.7L116.1,48.7L116.1,48.6C115.7,48.6 115,49.5 115,49.5ZM112.6,47.7L112,47.5L110.6,49.1L111.6,49.4C111.8,48.6 112.6,47.7 112.6,47.7ZM114.7,50C114.2,51 114.3,51.7 114.3,51.7L114.8,50.6L114.8,50.4C114.9,50.4 114.8,50.2 114.7,50ZM114.2,43.5C114.2,43.5 114,43.9 113.9,44C113.8,44.1 113.1,44.2 112.7,44.3C112.3,44.5 111.6,44.8 111.4,45C111.3,45.1 111.3,45.4 111.3,45.5C111.3,45.5 111.5,45.6 111.6,45.6L110.7,46.4L110.9,46.6L113.1,47.3C113.6,46.9 114.3,46.8 114.3,46.8C113.9,46.6 112.2,45.9 111.7,45.7C111.7,45.7 111.4,45.6 111.4,45.5L111.4,45.2C111.4,45.2 112.7,44.2 114.7,44.2L115,43.6L114.2,43.5ZM115.5,52.3L115.1,51.1L115,51.1L114.4,52.2L114.5,52.3C115,52.5 115.5,52.3 115.5,52.3ZM100.4,40.9L100.7,41C100.7,41 100.9,41 100.9,40.8L100.9,40.4L100.6,40.2L100.2,40.1C100.3,40.2 100.3,40.3 100.3,40.3L100.4,40.3C100.4,40.2 100.5,40.2 100.5,40.3C100.5,40.3 100.7,40.4 100.6,40.7C100.7,40.8 100.5,40.9 100.4,40.9ZM99.5,46.4C98.8,47.7 99.3,48.6 99.3,48.6L100.2,47.3L100.2,47.1L99.5,46.4ZM93,38.7L94.2,39C94.3,39 95,38.9 95,38.9L93.1,38.4L93,38.7ZM93.7,38.4C95.3,38.6 95.6,38.9 95.6,38.9C95.6,38.9 96.2,38.8 96.5,38.8C96,38.4 93.8,37.7 93.8,37.7C93.8,37.7 93.7,38 93.7,38.4ZM96.1,41.5C95.8,41.7 95.5,42.3 95.6,42.8C95.7,43.3 95.8,43.3 96.1,43.3C95.6,43.1 95.7,42.3 96.1,41.8C96.4,41.4 96.7,41.7 96.7,41.7C96.7,41.7 96.4,41.3 96.1,41.5ZM89,56.3C87.7,56.3 86.2,56.8 87.1,58.2C94.5,70.9 102.3,73.9 105.6,75.5C107.1,74.8 109.5,73.7 112.4,71.7C114.1,70.6 113.9,68.9 113.5,67.8C111.4,62.6 99.9,56.7 89,56.3ZM130.7,32.6C127.7,30.5 120.3,26.7 105.6,26.7C100.5,26.7 96.2,27.2 92.8,27.9C93.6,29.2 94,30.7 94,32.3C94,34.5 93.2,36.5 91.9,38C92.2,38.1 92.6,38.2 93.1,38.3L93.3,37.8C93.3,37.8 93.5,37.8 93.6,37.9C93.6,37.4 93.9,37.4 93.9,37.4C93.9,37.4 93.9,37.3 94,37.3C94.5,37.4 95.9,38.1 96.5,38.4C97.1,38.7 97.1,38.8 97.1,38.8C97.1,38.8 98.5,38.8 98.9,38.7C99.3,38.7 100,38.4 101,38.1C102,37.8 102.2,37.7 102.4,37.7C102.6,37.7 104.4,37.8 106,38C107.6,38.2 109.1,38.8 109.4,39L109.9,39.1L110,38.8L109.2,38.5C109.2,38.5 109.3,38 109.3,37.9C109.3,37.8 109.4,37.7 109.5,37.7C109.6,37.7 110.5,37.9 110.8,38C111.1,38.1 112.1,38.8 112.2,38.8C112.3,38.8 112.3,38.9 112.3,38.9C112.3,39.1 112.1,39.5 112.1,39.5L111.8,39.4L112.1,39.5C112.1,39.5 112.4,39.6 112.5,39.7C112.6,39.8 112.9,40 113.2,40.3C113.5,40.5 113.4,40.8 113.4,40.8L114.1,41.5L114.1,41.8L115.8,43.5L115.8,43.6L115,44.1C115,44.1 116.1,44 116.9,44.4C117.7,44.8 117.8,45 117.8,45.2C117.6,45.3 117.3,45.4 117.3,45.4C116.7,45.6 115.2,46.6 115.2,46.6L115.2,46.7L116,46.9C116.9,46.1 118.5,45.8 119.7,46C123.8,46.8 126.6,49.5 127.2,51.8C127.2,51.9 127.3,52.1 127.3,52.2C131.4,42.6 131,35.7 130.7,32.6ZM116.3,47.2C116.4,47.3 116.5,47.3 116.6,47.4C117.2,47.8 117.5,48 117.6,48.9C117.7,49.6 117.5,50.6 117,51.5C119.8,53.4 123.7,51.9 125.2,53.4C124.9,49.6 119.3,45.8 116.3,47.2ZM93.3,42.3L93.1,42.4L93.1,43.2L93.3,43.1L93.3,42.3ZM122.2,54.7C120.1,54.7 118,54 116.5,52.2L116.5,52.3C115.6,53.5 114.6,53.5 114.2,53.5C113.8,53.5 112.5,52.9 112,52.3C111.5,51.7 111.5,50.6 111.5,50.6L109.5,49.9L107,48.5L106.6,48.4C105.8,48.8 104.8,48.5 103.9,47.8C103.8,48.2 103.3,49.2 102.7,49.7C102.1,50.2 100.9,50.9 100,50.9C99.1,50.9 97.1,49.9 96.5,48.5C95.9,47.1 96.5,45.6 96.5,45.6L95.5,45.4L95.1,44.9C95.1,44.9 93.9,45.9 92.6,45.5C91.3,45.1 90.2,44 89.9,43C89.7,42 90,41.1 90.1,41C89.9,40.3 89.9,39.9 89.9,39.9L89.8,39.9L89.8,39.6C88.5,40.5 87,40.9 85.4,40.9C83.6,40.9 81.9,40.3 80.5,39.4C80.7,41.6 81.3,44.2 82.1,47.1C83.2,51.1 86.8,52.4 92.2,53.3C104.1,55.2 115.5,64.3 114.7,69.9C117.7,67.4 120.9,63.7 124.1,58.2C125.4,56.1 124.2,54.7 122.2,54.7ZM90.4,40.9L90.3,42L91,42L91,41.9L90.9,41.9L90.9,41.8L90.8,41.8L90.9,41.6L91,41.1L90.9,41L90.9,40.8L91,40.7L91.1,39.5L90.6,39.2C90.8,38.4 91.3,37.7 91.3,37.7L91,37.7C90.5,38.3 90.3,39.1 90.3,39.1C90.3,39.1 90.2,40.4 90.2,40.6C90.2,40.9 90.4,40.9 90.4,40.9ZM101.4,47.6L101.9,49.2C102.9,48.5 103.1,47.4 103.1,47.4L101.5,47.5L101.4,47.6ZM102.3,45.1L101.5,46.5L101.6,46.6L103.2,46.7C103.2,45.6 102.3,45.1 102.3,45.1ZM92.3,42L92.2,42.6L92.3,42.6L92.3,42ZM99.9,45.8L100.7,46.4L100.9,46.3L101.8,44.9C100.7,44.8 99.9,45.8 99.9,45.8ZM92.5,42.1L92.4,42L92.4,42.7L92.5,42.7L92.5,42.1ZM92.8,42.3L92.7,43L92.8,43L92.8,42.3ZM93,42.4L92.9,43.1L93,43.1L93,42.4ZM92.6,42.2L92.5,42.9L92.6,42.9L92.6,42.2Z" style="fill:url(#_Radial1);fill-rule:nonzero;"/>
        </g>
        <g transform="matrix(0.0556703,0,0,0.0558023,73.4217,23.9952)">
            <path d="M618.023,483.314L658.282,513.19L644.706,531.484L628.219,519.249L615.355,536.583L630.036,547.478L617.13,564.868L602.45,553.974L573.957,592.37L550.186,574.729L618.023,483.314ZM649.975,577.597L628.575,561.716L632.304,556.691C636.606,550.894 640.592,546.92 644.26,544.768C647.929,542.617 652.671,541.831 658.487,542.411C664.302,542.991 670.429,545.669 676.865,550.446C684.582,556.172 689.385,561.852 691.275,567.487C693.165,573.121 693.031,578.217 690.875,582.775C688.718,587.333 683.045,595.804 673.854,608.188L645.948,645.793L623.758,629.326L628.713,622.649C625.333,624.293 622.046,624.967 618.85,624.672C615.655,624.376 612.533,623.097 609.483,620.835C605.493,617.874 602.664,614.037 600.994,609.325C599.325,604.613 601.298,598.474 606.912,590.908L611.48,584.754C615.642,579.145 619.362,575.981 622.639,575.261C625.917,574.541 632.062,575.424 641.075,577.909C650.745,580.532 656.22,581.531 657.501,580.906C658.783,580.28 660.582,578.405 662.901,575.281C665.806,571.366 667.407,568.6 667.703,566.981C668,565.362 667.47,564.05 666.115,563.044C664.572,561.899 663.242,561.685 662.125,562.404C661.009,563.122 658.9,565.57 655.799,569.748L649.975,577.597ZM649.576,593.237C643.942,593.2 640.162,593.868 638.238,595.242C636.314,596.616 634.095,598.997 631.581,602.384C628.703,606.262 627.1,608.953 626.77,610.46C626.44,611.966 627.028,613.278 628.534,614.395C629.964,615.457 631.224,615.706 632.313,615.143C633.403,614.579 635.344,612.415 638.138,608.651L649.576,593.237ZM732.606,593.911L727.088,600.521C730.787,598.997 734.343,598.434 737.754,598.832C741.166,599.229 744.434,600.587 747.558,602.906C751.473,605.811 753.988,609.107 755.104,612.795C756.22,616.484 756.094,619.995 754.729,623.33C753.363,626.665 750.249,631.608 745.389,638.158L706.421,690.669L683.61,673.741L722.117,621.851C725.944,616.694 728.107,613.425 728.606,612.044C729.105,610.664 728.583,609.401 727.04,608.255C725.421,607.054 723.923,606.949 722.545,607.941C721.167,608.932 718.383,612.251 714.193,617.897L676.608,668.545L653.797,651.617L709.399,576.69L732.606,593.911ZM450.569,715.703L425.367,700.176L435.745,683.331C438.763,678.433 440.377,675.21 440.586,673.664C440.796,672.117 439.983,670.778 438.147,669.647C436.072,668.368 434.3,668.295 432.831,669.428C431.363,670.56 429.117,673.581 426.092,678.489L398.357,723.506C395.456,728.216 393.842,731.461 393.515,733.242C393.189,735.023 394.003,736.515 395.959,737.72C397.835,738.876 399.506,738.912 400.972,737.828C402.437,736.745 404.81,733.542 408.088,728.221L415.593,716.039L440.796,731.567L438.469,735.344C432.288,745.375 427.197,752.053 423.194,755.376C419.192,758.7 413.794,760.447 407,760.617C400.205,760.787 393.256,758.684 386.153,754.307C378.77,749.758 373.507,744.672 370.366,739.047C367.224,733.423 366.332,727.767 367.689,722.079C369.046,716.39 372.651,708.797 378.503,699.299L395.948,670.984C400.251,664 403.717,658.909 406.348,655.712C408.978,652.515 412.476,650.032 416.842,648.263C421.209,646.493 426.069,645.977 431.422,646.716C436.776,647.454 442.187,649.507 447.654,652.876C455.077,657.449 460.319,662.658 463.38,668.503C466.441,674.348 467.41,679.88 466.287,685.098C465.164,690.317 461.815,697.449 456.242,706.496L450.569,715.703ZM509.795,693.969L450.083,790.887L425.18,775.544L484.892,678.626L509.795,693.969ZM563.079,750.913L514.137,830.351L489.533,815.192L494.018,808.851C490.692,810.497 487.388,811.233 484.109,811.061C480.829,810.888 477.593,809.818 474.4,807.851C470.769,805.614 468.149,803.119 466.541,800.366C464.934,797.614 464.213,794.83 464.378,792.014C464.544,789.198 465.194,786.557 466.329,784.09C467.463,781.623 470.133,776.977 474.337,770.153L507.346,716.576L531.531,731.476L498.227,785.532C494.416,791.718 492.343,795.506 492.009,796.897C491.675,798.288 492.346,799.5 494.023,800.533C495.818,801.639 497.255,801.698 498.332,800.71C499.408,799.722 501.951,795.975 505.959,789.47L538.894,736.012L563.079,750.913ZM606.713,753.681L592.578,776.623C596.003,775.533 599.293,775.174 602.45,775.546C605.607,775.918 608.622,776.99 611.495,778.76C614.808,780.801 617.361,783.09 619.157,785.628C620.952,788.165 621.91,790.765 622.031,793.428C622.153,796.09 621.79,798.399 620.943,800.355C620.096,802.311 617.865,806.222 614.251,812.088L592.195,847.886C588.606,853.713 585.543,857.813 583.006,860.187C580.47,862.561 577.12,863.911 572.955,864.236C568.791,864.561 564.734,863.506 560.783,861.072C557.949,859.326 555.687,857.077 553.996,854.325C552.306,851.574 551.207,848.331 550.699,844.598L545.445,849.64L522.817,835.699L582.528,738.781L606.713,753.681ZM589.402,798.266C591.935,794.155 593.329,791.311 593.585,789.735C593.84,788.158 593.21,786.902 591.693,785.968C590.217,785.058 588.921,785.017 587.806,785.844C586.691,786.671 584.768,789.299 582.039,793.729L560.943,827.971C558.312,832.241 556.877,835.128 556.638,836.633C556.399,838.138 557.018,839.345 558.495,840.255C560.011,841.189 561.38,841.179 562.601,840.224C563.823,839.27 565.884,836.438 568.785,831.729L589.402,798.266Z" style="fill:white;fill-rule:nonzero;"/>
        </g>
        <g id="path26" transform="matrix(1,0,0,1,-0.16076,0.295187)">
            <path d="M130.7,32.6C131,36.3 131.5,45.4 124.1,58.2C116.8,70.9 108.9,73.9 105.6,75.5L105.6,73.6C111.7,70.3 117,65 121.2,56.6C126.1,46.9 126.7,39 126.3,35L130.7,32.6Z" style="fill-opacity:0.5;fill-rule:nonzero;"/>
        </g>
        <g id="path33" transform="matrix(1,0,0,1,-0.16076,0.295187)">
            <path d="M130.7,32.6C127.7,30.5 120.3,26.7 105.6,26.7C100.5,26.7 96.2,27.2 92.8,27.9C93.5,29 93.9,30.3 94,31.7C97.8,31 101.9,30.6 106.3,30.7C115.7,30.8 123.3,32.9 126.4,35L130.7,32.6" style="fill:url(#_Linear2);fill-rule:nonzero;"/>
        </g>
        <g id="circle42" transform="matrix(1,0,0,1,-0.16076,0.295187)">
            <circle cx="85.4" cy="32.3" r="6.2" style="fill:url(#_Radial3);"/>
        </g>
    </g>
    <defs>
        <radialGradient id="_Radial1" cx="0" cy="0" r="1" gradientUnits="userSpaceOnUse" gradientTransform="matrix(47.776,0,0,-47.776,85.227,32.138)"><stop offset="0" style="stop-color:rgb(0,174,255);stop-opacity:1"/><stop offset="0.07" style="stop-color:rgb(0,174,255);stop-opacity:1"/><stop offset="0.13" style="stop-color:rgb(0,165,247);stop-opacity:1"/><stop offset="0.35" style="stop-color:rgb(0,141,224);stop-opacity:1"/><stop offset="0.62" style="stop-color:rgb(0,101,186);stop-opacity:1"/><stop offset="0.93" style="stop-color:rgb(0,47,135);stop-opacity:1"/><stop offset="1" style="stop-color:rgb(0,33,122);stop-opacity:1"/></radialGradient>
        <linearGradient id="_Linear2" x1="0" y1="0" x2="1" y2="0" gradientUnits="userSpaceOnUse" gradientTransform="matrix(37.963,0,0,37.963,92.8,30.85)"><stop offset="0" style="stop-color:white;stop-opacity:1"/><stop offset="1" style="stop-color:white;stop-opacity:0"/></linearGradient>
        <radialGradient id="_Radial3" cx="0" cy="0" r="1" gradientUnits="userSpaceOnUse" gradientTransform="matrix(8.286,0,0,-8.286,83.729,29.801)"><stop offset="0" style="stop-color:white;stop-opacity:1"/><stop offset="0.68" style="stop-color:rgb(122,122,122);stop-opacity:1"/><stop offset="1" style="stop-color:rgb(64,64,64);stop-opacity:1"/></radialGradient>
    </defs>
</svg>
